<svg width="619" height="214" viewBox="0 0 619 214" fill="none" xmlns="http://www.w3.org/2000/svg">
<path d="M0 214H71.3763L85.9429 174.61L53.1681 107.5L0 214Z" fill="#222326"/>
<path d="M189.366 160.75L109.978 1L85.9429 55.7089L160.961 214H215L189.366 160.75Z" fill="#222326"/>
<path d="M475.374 29.6648C469.559 38.4011 466.652 48.9817 466.652 61.4066C466.652 65.5482 467.745 73.5079 468.326 77.1319H509.03C506.51 73.6374 504.448 65.2894 504.448 60.2418C504.448 52.6703 507.162 46.7491 512.589 42.478C518.21 38.0128 526.835 35.7802 538.465 35.7802C546.218 35.7802 552.905 36.9451 558.526 39.2747C564.147 41.4103 568.411 44.9048 571.319 49.7583C574.42 54.4176 575.97 60.63 575.97 68.3956V77.1319H613.767V68.3956C613.767 53.641 610.472 41.4103 603.882 31.7033C597.485 21.8022 588.569 14.4249 577.133 9.57144C565.891 4.52381 553.002 2 538.465 2C523.928 2 511.232 4.42674 500.378 9.28023C489.717 13.9396 481.383 20.7344 475.374 29.6648Z" fill="#D50E0E"/>
<path fill-rule="evenodd" clip-rule="evenodd" d="M617.094 135.374H572.731C569.959 133.318 566.484 131.571 562.306 130.132C556.297 127.802 548.931 125.667 540.209 123.725L533.522 122.269C519.567 119.163 507.549 115.28 497.47 110.621C487.585 105.767 479.929 99.4579 474.502 91.6923C471.013 86.5153 469.489 84.3797 468.326 77.1319H509.03C511.744 80.6264 514.915 79.4615 520.148 81.7912C525.381 84.1209 532.069 86.1593 540.209 87.9066L546.896 89.3626C561.433 92.4689 574.032 96.4487 584.693 101.302C595.547 106.156 603.978 112.562 609.987 120.522C613.232 124.821 615.601 129.772 617.094 135.374Z" fill="#45CC05"/>
<path d="M500.378 205.555C512.395 211.185 526.254 214 541.954 214C557.654 214 571.222 211.379 582.657 206.137C594.287 200.701 603.203 193.324 609.406 184.006C615.601 174.791 618.796 164.21 618.991 152.264C618.997 151.877 619 151.489 619 151.099C619 145.385 618.365 140.143 617.094 135.374H572.731C574.072 136.369 575.249 137.437 576.261 138.577C579.556 142.071 581.204 146.634 581.204 152.264C581.204 160.418 577.909 167.115 571.319 172.357C564.922 177.599 555.134 180.22 541.954 180.22C528.967 180.22 518.694 177.211 511.135 171.192C503.576 164.98 499.796 155.758 499.796 143.527V135.374H462V143.527C462 158.282 465.392 170.901 472.176 181.385C478.96 191.868 488.36 199.925 500.378 205.555Z" fill="#054BFE"/>
<path fill-rule="evenodd" clip-rule="evenodd" d="M322 214C381.094 214 429 166.094 429 107C429 47.9055 381.094 0 322 0C262.906 0 215 47.9055 215 107C215 166.094 262.906 214 322 214ZM322 172C357.899 172 387 142.899 387 107C387 71.1015 357.899 42 322 42C286.101 42 257 71.1015 257 107C257 142.899 286.101 172 322 172Z" fill="#222326"/>
<mask id="mask0_3_8" style="mask-type:alpha" maskUnits="userSpaceOnUse" x="215" y="0" width="214" height="214">
<path fill-rule="evenodd" clip-rule="evenodd" d="M322 214C381.094 214 429 166.094 429 107C429 47.9055 381.094 0 322 0C262.906 0 215 47.9055 215 107C215 166.094 262.906 214 322 214ZM322 172C357.899 172 387 142.899 387 107C387 71.1015 357.899 42 322 42C286.101 42 257 71.1015 257 107C257 142.899 286.101 172 322 172Z" fill="black"/>
</mask>
<g mask="url(#mask0_3_8)">
<path d="M322 135H429V222H322V135Z" fill="#054BFE"/>
<path d="M322 1H429V78H322V1Z" fill="#D50E0E"/>
<path d="M322 78H619V135.5H322V78Z" fill="#45CC05"/>
</g>
</svg>
