<svg width="982" height="1025" viewBox="0 0 982 1025" fill="none" xmlns="http://www.w3.org/2000/svg">
<path d="M417.601 60.4999L413.101 14.5C307.75 26.1447 254.961 77.7021 209.6 150C118.09 146.352 89.3628 177.067 39.852 259.326C27.2583 280.249 0.953816 305.373 18.795 322.049C20.6474 323.781 22.7711 325.576 25.1005 327.5L40.9907 353.737C44.5279 359.578 50.5765 363.445 57.3623 364.204L118.101 371C146.634 384.518 159.18 399.76 171.6 449C172.455 502.361 178.408 529.392 189.262 567.007C192.088 576.798 188.187 587.265 179.755 592.989C148.097 614.479 129.951 631.459 112.108 664.321C107.94 671.998 103.543 679.582 97.7118 686.087C96.7736 687.133 95.8022 688.205 94.8086 689.294C79.4039 706.181 63.6026 728.38 71.375 749.875C74.6042 758.806 82.4058 760.553 94.1285 760.232C97.3417 760.143 100.4 758.817 102.736 756.609C150.72 711.256 182.909 657.172 204.712 657M226.1 190.5C316.482 82.6246 373.336 43.5002 502.601 69.9999C495.836 154.777 407.202 194.527 284.601 209.5M252.1 213C266.417 211.917 271.263 211.129 284.601 209.5M284.601 209.5C292.648 222.418 295.765 235.386 293.294 287.1C293.177 289.549 294.185 291.949 296.034 293.559C340.293 332.083 376.493 359.927 459.218 417.144C466.722 422.334 475.22 426.207 484.034 428.567C744.634 498.328 856.173 562.93 857.1 800C871.158 812.001 889.449 807.542 905.038 798.879C917.113 792.169 932.245 790.481 943.277 798.795C972.401 820.746 979.806 839.649 951.101 890.5C930.675 923.306 908.768 942.671 868.888 963.52C854.327 971.132 838.154 975.028 822.134 978.68C805.489 982.474 794.284 985.5 776.6 974.5L769.1 969.5L775.861 1003.3C776.312 1005.56 775.414 1007.87 773.56 1009.23V1009.23C770.663 1011.35 767.163 1012.5 763.57 1012.5H396.601C395.544 1010.36 394.853 1008.01 394.483 1005.5M442.601 929C517.601 924.5 567.654 933.499 631.6 958C517.1 906.5 439.6 811.5 601.6 657M442.601 929C434.601 929.48 429.488 933.509 423.536 940M442.601 929C402.846 879.154 389.061 843.634 384.057 787.685C382.808 773.713 379.924 759.8 373.621 747.269C359.544 719.279 344.232 700.693 308.101 676M423.536 940C344.796 928.68 318.694 941.029 313.101 1005.5H394.483M423.536 940C408.208 956.715 391.605 985.964 394.483 1005.5M308.101 676C273.601 676 259.1 728.5 209.1 785.5C200.958 792.278 195.511 795.253 183.6 798.5C170.704 797.742 165.827 795.392 158.6 790C150.628 776.77 150.618 768.234 158.6 751L184.437 716.43C190.767 707.96 194.565 697.937 196.417 687.527C198.41 676.324 201.068 666.406 204.712 657M308.101 676H395.893C407.238 676 418.793 674.187 428.399 668.151C444.062 658.308 450.22 645.498 447.101 615M275.601 410C231.369 469.574 224.204 508.805 242.696 578.015C245.279 587.681 243.018 598.016 236.653 605.736C221.373 624.268 211.387 639.774 204.712 657" stroke="black" stroke-width="25" stroke-linecap="round"/>
</svg>
